<svg viewBox="0 0 64 64" xmlns="http://www.w3.org/2000/svg" aria-hidden="true">
  <g fill="none" stroke="currentColor" stroke-width="1.9" stroke-linecap="round" stroke-linejoin="round">
    <path d="M8 37c6.2-8.1 14.2-12.2 24-12.2S49.8 28.9 56 37"/>
    <path d="M42 23c-5.1 0-7.6 3.9-7.2 9.3.4 5.7 2.6 7.8 3.1 13.5.4 4.1 1.4 7.1 3.9 7.1 2.7 0 2.6-5 4.8-5s2.1 5 4.8 5c2.5 0 3.5-3 3.9-7.1.5-5.7 2.7-7.8 3.1-13.5.4-5.4-2.1-9.3-7.2-9.3-2.8 0-3.8 1.7-4.8 1.7S44.8 23 42 23Z"/>
    <path d="M48 14v6M45 17h6"/>
  </g>
</svg>
